<svg width="677" height="289" viewBox="0 0 677 289" fill="none" xmlns="http://www.w3.org/2000/svg">
<path d="M645 86.12C610.25 71.83 571.3 66.12 530 65.12C491.12 32.81 446.37 12.97 391.5 14.62C348.16 17.04 314.91 26.43 285 38.12C245 54.12 201.78 61.2 156 61.12C168.07 76.24 191.07 82.49 221 83.12C182.73 111.47 133.34 125.35 73.5 125.62C94.12 147.02 123.2 158.53 159.5 161.62C127.65 193.62 73.5 202.24 8.5 199.62C42.5 229.41 89.17 240.18 153 232.12C163.37 230.71 168.85 223.97 170 214.12L182 134.12C183 121.12 191.45 115.21 205 114.12H646C660.08 114.96 661.52 124.37 661 135.12C669.94 112.2 663.26 96.48 645 86.12ZM459.28 59C457.017 59.0194 454.777 58.535 452.724 57.582C450.671 56.629 448.856 55.2312 447.41 53.49C432.52 35.17 391.47 24.63 391.47 24.63C470.71 27.09 514.1 66.37 515.47 67.63C503.9 59.08 473.94 59 459.28 59Z" fill="#DF221C"/>
<path d="M208.49 47.1C229.49 43.6 250.23 39.03 270.08 31.47C274.77 29.75 280.2 27.82 284.83 25.84C373.16 -12.94 455.52 -9.34 532.99 50.93L531.51 50.41C553.3 50.92 575.17 52.13 596.77 55.25C611.22 57.38 625.77 60.25 639.5 65.25C652.99 70.78 667.04 78.75 673.68 92.36C676.98 99 677.58 106.67 676.46 113.88C677.084 106.711 675.53 99.5209 672 93.25C664.67 80.88 651 74.44 637.77 70C620.91 63.91 603.12 60.91 585.36 58.78C567.6 56.65 549.45 55.78 531.36 55.39H530.55L529.88 54.88C453.74 -4.32999 373.42 -7.57999 286.75 30.44C262.14 41.22 234.99 45.08 208.45 47.1H208.49Z" fill="black"/>
<path d="M0 204.41C42.42 237.04 93.22 247.93 145.71 239.77C149.21 239.31 157.9 237.65 161.45 236.97L162.55 241.84C157.47 242.99 151.73 244.26 146.55 245.05C108.95 251.45 69.05 247.34 34.68 230.32C21.75 223.83 9.28 215.63 0.0100021 204.41H0Z" fill="black"/>
<path d="M243.17 135C239.97 131.05 234.52 128.88 225.77 128.13L226.88 121.85H213L212 128C197.45 128.77 187.31 132.93 184.63 148.37C183.45 155.01 184.28 159.98 187.19 163.57C190.38 167.5 195.86 169.65 204.72 170.37L203.72 176.68H217.35L218.43 170.53C233.43 169.72 243.15 165.61 245.84 150.08C247 143.55 246.08 138.61 243.17 135ZM220.17 158.74L223.49 139.57C227.94 139.89 230.64 140.68 231.7 141.97C232.58 143.04 232.7 145.14 232.17 148.38C231.08 154.66 229 157.79 220.19 158.76L220.17 158.74ZM198.69 156.56C197.82 155.5 197.69 153.38 198.23 150.07C199.3 143.82 201.37 140.69 210.23 139.72L206.93 159C202.44 158.63 199.74 157.85 198.71 156.58L198.69 156.56Z" fill="black"/>
<path d="M265.54 137.72L264.65 142.92H287.07L285.25 154.11H262.78L261.32 162.84C261.55 162.852 261.78 162.852 262.01 162.84H286.01L285.62 173.9L282.43 174.08C275.68 174.45 267.95 174.45 261.14 174.45C255.78 174.45 251.88 173.04 249.53 170.26C248.586 169.101 247.915 167.743 247.569 166.289C247.223 164.834 247.209 163.32 247.53 161.86L252.15 135.03C253.2 128.67 258.59 124.86 266.56 124.86C274.27 124.86 282.23 124.86 289.28 125.23L293.38 125.45L291.02 136.45H267.45C266.898 136.389 266.34 136.472 265.83 136.69C265.657 137.007 265.558 137.359 265.54 137.72Z" fill="black"/>
<path d="M345 125H321.55C313.72 125 308.37 128.82 306.88 135.45C304.82 144.14 301.88 154.13 295.44 163.04H289.37L288.24 170.3L285.84 183.77H297.91L300.18 174.47H330.29L329.29 183.77H341.29L344.83 163H338.41L345 125ZM311 163C315.88 154.56 318.41 145.5 320.11 138.11C320.34 137.04 320.48 136.39 323.04 136.39H329.33L324.73 163H311Z" fill="black"/>
<path d="M365.37 137.72L364.48 142.92H386.9L385.08 154.11H362.61L361.15 162.84C361.38 162.852 361.61 162.852 361.84 162.84H385.84L385.45 173.9L382.26 174.08C375.51 174.45 367.78 174.45 360.97 174.45C355.61 174.45 351.7 173.04 349.36 170.26C348.414 169.102 347.742 167.744 347.396 166.29C347.05 164.835 347.037 163.32 347.36 161.86L352 135.06C353 128.7 358.44 124.89 366.41 124.89C374.11 124.89 382.08 124.89 389.13 125.26L393.22 125.48L390.87 136.48H367.28C366.728 136.417 366.17 136.499 365.66 136.72C365.492 137.028 365.393 137.37 365.37 137.72Z" fill="black"/>
<path d="M435.34 129.41C432.43 125.94 427.51 124.41 419.34 124.41C411.43 124.41 407.34 124.47 401.34 124.98L398.65 125.21L390.14 174.44H404L406.9 157.68C409.72 157.89 412.79 158.01 415.73 158.01C428.12 158.01 435.28 155.45 437.63 142.01C438.54 136.46 437.81 132.35 435.34 129.41ZM410.54 136.09C413.03 136.09 415.93 136.09 419.15 136.09C423.4 136.09 424.08 136.76 424.15 136.83C424.22 136.9 424.62 137.44 424.15 140.33C423.09 146.09 421.48 146.33 415.49 146.33H408.83L410.54 136.09Z" fill="black"/>
<path d="M471.13 129.42C470.871 128.115 470.152 126.946 469.104 126.126C468.056 125.306 466.749 124.889 465.42 124.95H458.42C457.246 124.886 456.078 125.168 455.063 125.762C454.048 126.356 453.23 127.235 452.71 128.29L425.9 174.42H441.08L448.49 161.19H465.15L467.95 174.42H481.87L471.13 129.42ZM462.59 149.42H455.05L460.48 139.72L462.59 149.42Z" fill="black"/>
<path d="M530.55 162.99H536.97L533.43 183.72H521.45L522.43 174.41H484.65L493.2 124.94H506.96L500.38 162.99H516.87L523.45 124.94H537.13L530.55 162.99Z" fill="black"/>
<path d="M593.54 124.94L585 174.41H571.54L576.16 147.52L551.76 174.41H538.79L547.34 124.94H560.95L556.25 151.88L580.65 124.94H593.54Z" fill="black"/>
<path d="M639.18 125C634.18 124.64 629.58 124.43 620.63 124.43C611.68 124.43 601.25 126.06 599.1 138.73C598.35 143.1 599.1 147.12 601.25 150.06C601.647 150.603 602.088 151.111 602.57 151.58C601.175 152.875 599.973 154.364 599 156L589.22 174.42H604.42L612 159.89C613.12 157.79 614.19 157.19 616.8 157.19H623.73L620.73 174.46H634.57L643 125.23L639.18 125ZM617.3 145.51C615.11 145.51 613.53 145.12 612.96 144.43C612.39 143.74 612.38 142.49 612.72 140.66C613.27 137.73 613.9 136.07 620.72 136.07H627.38L625.72 145.5L617.3 145.51Z" fill="black"/>
<path d="M211.15 196C210.939 194.682 210.253 193.487 209.221 192.64C208.19 191.792 206.884 191.351 205.55 191.4H199C197.817 191.348 196.646 191.656 195.642 192.285C194.638 192.914 193.849 193.833 193.38 194.92L168.19 242.71H182.79L189.79 228.9H205.11L207.75 242.71H221.27L211.15 196ZM195.82 217L200.82 207.18L202.75 217H195.82Z" fill="black"/>
<path d="M268.74 206.65C269.5 201.8 268.74 198.17 266.53 195.54C262.99 191.41 256.4 190.85 250.42 190.85C243.2 190.85 239.37 190.93 234.32 191.38L231.6 191.63L223.66 242.37L227.43 242.67C233.37 243.14 237.94 243.2 246.28 243.2C257.73 243.2 264.76 240.86 266.81 228.9C267.65 223.81 267 219.98 264.81 217.19C264.586 216.9 264.346 216.623 264.09 216.36C266.52 214.2 268.05 211 268.74 206.65ZM241.93 210.57L243.14 202.67H250.14C254.58 202.67 255.61 203.13 255.8 203.27C255.997 204.114 255.98 204.994 255.75 205.83C255.22 209.31 254.7 210.51 248.26 210.57H241.93ZM240.13 221.87H247.94C252.62 221.95 253.55 222.62 253.72 222.87C253.72 222.93 254.21 223.56 253.72 226.51C253.17 230.24 252.65 231.42 245.32 231.42H238.61L240.13 221.87Z" fill="black"/>
<path d="M317.4 191.37L315.69 203.38H299.72L293.57 242.67H280.2L286.34 203.38H270.48L272.37 191.37H317.4Z" fill="black"/>
<path d="M356.25 196.31C352.93 192.42 347.6 190.53 339.95 190.53C323.95 190.53 316.55 197.76 313.7 216.31C312.15 226.48 313.21 233.31 317.03 237.74C320.42 241.68 325.65 243.52 333.52 243.52C349.43 243.52 356.71 236.29 359.52 217.75C361.09 207.59 360.07 200.78 356.25 196.31ZM333.66 231.44C330.52 231.44 328.56 230.95 327.66 229.92C326.31 228.34 326.15 224.36 327.17 217.75C329.29 204.04 332.58 202.61 339.57 202.61C342.82 202.61 344.82 203.09 345.67 204.1C346.99 205.64 347.11 209.63 346.05 216.28C343.86 230 340.43 231.44 333.66 231.44Z" fill="black"/>
<path d="M406 192.87L403.51 203.45L400.51 203.17C396.463 202.765 392.397 202.578 388.33 202.61C381.27 202.61 377.97 204.04 375.93 217.73C374.87 224.36 375.01 228.34 376.36 229.93C377.21 230.93 379.07 231.42 382.06 231.44C386.626 231.487 391.191 231.26 395.73 230.76L399.3 230.36L400.21 241.24L397.29 241.94C392.277 243.086 387.14 243.593 382 243.45C374.38 243.45 369.05 241.55 365.71 237.64C361.9 233.18 360.87 226.39 362.47 216.29C365.37 197.8 372.65 190.6 388.47 190.6C393.267 190.438 398.064 190.926 402.73 192.05L406 192.87Z" fill="black"/>
<path d="M454.28 191.37L446.26 242.67H432.88L439.1 202.99H423.39L417.18 242.67H403.74L411.76 191.37H454.28Z" fill="black"/>
<path d="M497.43 196.31C494.12 192.42 488.78 190.53 481.13 190.53C465.13 190.53 457.74 197.76 454.88 216.31C453.33 226.48 454.39 233.31 458.21 237.74C461.6 241.68 466.84 243.52 474.7 243.52C490.61 243.52 497.89 236.29 500.7 217.75C502.28 207.59 501.25 200.78 497.43 196.31ZM474.84 231.44C471.7 231.44 469.74 230.95 468.84 229.92C467.49 228.34 467.33 224.36 468.35 217.75C470.47 204.04 473.76 202.61 480.75 202.61C484 202.61 486 203.09 486.85 204.1C488.17 205.64 488.29 209.63 487.23 216.28C485 230 481.61 231.44 474.84 231.44Z" fill="black"/>
<path d="M546 195.63C542.29 191.29 535.69 190.79 531 190.79C525.31 190.689 519.619 190.886 513.95 191.38L511.25 191.64L503.25 242.64H516.63L519.36 225.17C521.97 225.38 524.79 225.49 527.49 225.49C539.33 225.49 546.17 222.84 548.38 208.87C549.4 203 548.6 198.65 546 195.63ZM522.9 202.69C525.2 202.69 527.9 202.69 530.83 202.69C534.59 202.69 535.22 203.3 535.28 203.37C535.34 203.44 535.84 204.07 535.28 207.37C534.28 213.23 533.19 213.69 527.28 213.69H521.15L522.9 202.69Z" fill="black"/>
<path d="M595.84 191.37L594.12 203.38H578.15L572.01 242.67H558.63L564.78 203.38H548.92L550.8 191.37H595.84Z" fill="black"/>
<path d="M622.13 196C621.914 194.682 621.226 193.488 620.193 192.641C619.16 191.795 617.855 191.353 616.52 191.4H610C608.817 191.348 607.646 191.656 606.642 192.285C605.638 192.914 604.849 193.833 604.38 194.92L579.2 242.71H593.79L600.79 228.9H616.11L618.75 242.71H632.27L622.13 196ZM606.79 217L611.79 207.18L613.72 217H606.79Z" fill="black"/>
<path d="M170 262C172.96 261.703 175.936 261.586 178.91 261.65C185.01 261.65 187.22 263.86 186.34 270C185.39 276.7 183.03 278.11 177.04 278.11C175.067 278.114 173.096 277.987 171.14 277.73L169.65 288.29H166.3L170 262ZM176.93 275.22C181.08 275.22 182.38 274.07 183.03 269.73C183.68 265.39 182.42 264.55 178.8 264.55C176.51 264.55 174.49 264.55 172.97 264.55L171.48 275.18L176.93 275.22Z" fill="black"/>
<path d="M197.47 264.79C195.75 264.79 194.99 265.55 194.76 267.38L193.96 273.09H205.28L204.94 275.68H193.62L192.62 282.96C192.35 284.71 193 285.44 194.71 285.44H205L204.93 288.07C201.57 288.29 197.76 288.29 194.3 288.29C190.45 288.29 188.73 286.29 189.19 283.04L191.51 266.42C191.9 263.6 193.8 261.93 197.04 261.93C200.92 261.93 204.89 261.93 208.39 262.16L207.94 264.79H197.47Z" fill="black"/>
<path d="M226.88 287.88C224.354 288.512 221.753 288.791 219.15 288.71C211.61 288.71 209.21 284.64 210.58 275C211.99 265 215.07 261.51 222.58 261.51C224.993 261.413 227.407 261.683 229.74 262.31L229.21 264.82C226.996 264.573 224.768 264.459 222.54 264.48C217.4 264.48 215.23 266.69 214.08 275.23C212.94 283.23 214.2 285.7 219.19 285.74C221.697 285.77 224.202 285.63 226.69 285.32L226.88 287.88Z" fill="black"/>
<path d="M250.17 288.26H246.81L250.13 264.71H238L234.69 288.26H231.3L235 262H253.9L250.17 288.26Z" fill="black"/>
<path d="M268.19 281.85C266.47 285.4 264.61 288.26 261.48 288.52C259.874 288.574 258.268 288.382 256.72 287.95L257.25 285.51C262.25 285.97 262.47 285.63 264.68 281.7L265.33 280.6H264C263.43 280.666 262.857 280.508 262.402 280.159C261.946 279.81 261.644 279.297 261.56 278.73L257.86 262H261.22L264.38 277.27C264.45 277.66 264.68 277.81 265.1 277.81H266.74L274.44 262H278L268.19 281.85Z" fill="black"/>
<path d="M283.58 273.28H289.07C295.55 273.28 297.53 275.28 296.73 281.05C295.85 287.05 293.49 288.6 287.66 288.6C284.48 288.646 281.299 288.532 278.13 288.26L281.83 261.97C284.54 261.81 287.24 261.74 289.95 261.74C292.66 261.74 295.28 261.81 297.95 261.97L297.26 264.79H284.8L283.58 273.28ZM281.83 285.67C283.28 285.67 285.15 285.67 287.24 285.67C291.55 285.67 292.8 284.67 293.38 280.67C293.87 276.94 293.26 275.87 288.88 275.87H283.24L281.83 285.67Z" fill="black"/>
<path d="M319 288.26H315.7L319 264.71H313.89C311.89 264.71 311.04 265.4 310.58 267.53C308.58 276.53 307.84 279.84 305.66 283.46C303.87 286.54 301.32 288.26 298.35 288.29L298.24 285.59C300.068 285.061 301.631 283.866 302.62 282.24C304.62 279.15 305.28 276.37 307.38 266.65C308.1 263.45 310.01 261.97 313.21 261.97H322.73L319 288.26Z" fill="black"/>
<path d="M342.11 288.26L344.66 270C344.85 268.7 345.12 267.4 345.39 266.15H345.23C344.66 267.15 344.05 268.2 343.48 269L329.27 288.25H325.61L329.31 261.96H332.58L330 280.22C329.836 281.516 329.582 282.799 329.24 284.06H329.39C330.04 282.92 330.73 281.93 331.3 281.06L345.39 262H349L345.3 288.29L342.11 288.26Z" fill="black"/>
<path d="M362.91 274.65C367.71 275.26 368.36 280.03 370.19 288.26H366.84C365.12 280.37 364.59 275.91 359.71 275.91H356.78C356.809 276.869 356.732 277.828 356.55 278.77L355.26 288.26H351.9L355.6 262H359L357.82 270.26C357.69 271.274 357.486 272.276 357.21 273.26H359.95C364.45 273.26 366.66 268.38 369.86 262.02H373.33C369.92 268.9 367.6 274 363 274.54L362.91 274.65Z" fill="black"/>
<path d="M391.15 288.26L393.7 270C393.89 268.7 394.16 267.4 394.42 266.15H394.27C393.7 267.15 393.09 268.2 392.52 269L378.31 288.25H374.65L378.35 261.96H381.62L379 280.22C378.836 281.516 378.582 282.799 378.24 284.06H378.39C379.04 282.92 379.73 281.93 380.3 281.06L394.42 262H398L394.31 288.29L391.15 288.26Z" fill="black"/>
<path d="M425.94 288.26L428.49 270C428.68 268.7 428.95 267.4 429.21 266.15H429.06C428.49 267.15 427.88 268.2 427.31 269L413.1 288.26H409.44L413.13 262H416.41L413.82 280.25C413.656 281.546 413.402 282.829 413.06 284.09H413.21C413.86 282.95 414.54 281.96 415.11 281.09L429.21 262H432.83L429.14 288.29L425.94 288.26Z" fill="black"/>
<path d="M454.55 288.26H451.24L453 275.68H440.87L439.12 288.26H435.73L439.43 261.97H442.82L441.29 272.79H453.41L454.93 262H458.25L454.55 288.26Z" fill="black"/>
<path d="M464 266.8C464.46 263.49 466.59 261.93 469.3 261.93C473.07 261.93 476.88 261.93 480.3 262.19L479.84 264.79H470.32C468.32 264.79 467.57 265.4 467.27 267.57L464.37 288.26H461L464 266.8Z" fill="black"/>
<path d="M492.2 281.85C490.48 285.4 488.62 288.26 485.49 288.52C483.884 288.574 482.278 288.382 480.73 287.95L481.26 285.51C486.26 285.97 486.48 285.63 488.69 281.7L489.34 280.6H488C487.43 280.666 486.857 280.508 486.402 280.159C485.946 279.81 485.644 279.297 485.56 278.73L481.87 262H485.23L488.39 277.27C488.46 277.66 488.69 277.81 489.11 277.81H490.75L498.45 262H502L492.2 281.85Z" fill="black"/>
<path d="M531 288.26H502.14L505.84 261.97H509.12L505.84 285.51H515.29L518.6 262H521.88L518.57 285.54H528.05L531.33 262H534.64L531 288.26Z" fill="black"/>
<path d="M546.27 264.79C544.55 264.79 543.79 265.55 543.56 267.38L542.76 273.09H554.08L553.74 275.68H542.42L541.42 282.96C541.15 284.71 541.8 285.44 543.51 285.44H553.8L553.73 288.07C550.37 288.29 546.56 288.29 543.1 288.29C539.25 288.29 537.53 286.29 537.99 283.04L540.31 266.42C540.69 263.6 542.6 261.93 545.84 261.93C549.73 261.93 553.69 261.93 557.19 262.16L556.74 264.79H546.27Z" fill="black"/>
<path d="M571.34 264.94L568.06 288.26H564.71L568 264.94H559.54L559.96 261.94H580.23L579.85 264.94H571.34Z" fill="black"/>
<path d="M597.1 288.26L599.65 270C599.84 268.7 600.11 267.4 600.37 266.15H600.22C599.65 267.15 599.04 268.2 598.47 269L584.26 288.25H580.6L584.3 262H587.57L585 280.22C584.836 281.516 584.582 282.799 584.24 284.06H584.39C585.04 282.92 585.73 281.93 586.3 281.06L600.37 262H604L600.31 288.29L597.1 288.26Z" fill="black"/>
<path d="M620.23 288.26L621.75 277.55H616.15C614.21 277.55 613.06 278.35 612.15 280.37L608.83 288.22H605.17L608.68 280.1C609.9 277.62 611.16 276.52 612.87 276.33V276.18C609.44 275.57 608.41 272.18 608.87 268.63C609.59 263.37 612.49 261.63 617.97 261.63C622.32 261.63 624.6 261.75 627.19 261.98L623.5 288.27L620.23 288.26ZM623.58 264.56C622.13 264.56 620.26 264.56 618.13 264.56C614.59 264.56 612.91 265.63 612.38 269.17C611.85 272.71 612.83 274.73 616.38 274.73H622.09L623.58 264.56Z" fill="black"/>
</svg>
