<svg width="677" height="289" viewBox="0 0 677 289" fill="none" xmlns="http://www.w3.org/2000/svg">
<path d="M645 85.6633C610.25 71.3733 571.3 65.6633 530 64.6633C491.12 32.3533 446.37 12.5133 391.5 14.1633C348.16 16.5833 314.91 25.9733 285 37.6633C245 53.6633 201.78 60.7433 156 60.6633C168.07 75.7833 191.07 82.0333 221 82.6633C182.73 111.013 133.34 124.893 73.5 125.163C94.12 146.563 123.2 158.073 159.5 161.163C127.65 193.163 73.5 201.783 8.5 199.163C42.5 228.953 89.17 239.723 153 231.663C163.37 230.253 168.85 223.513 170 213.663L182 133.663C183 120.663 191.45 114.753 205 113.663H646C660.08 114.503 661.52 123.913 661 134.663C669.94 111.743 663.26 96.0233 645 85.6633ZM459.28 58.5433C457.017 58.5627 454.777 58.0783 452.724 57.1253C450.671 56.1724 448.856 54.7746 447.41 53.0333C432.52 34.7133 391.47 24.1734 391.47 24.1734C470.71 26.6334 514.1 65.9134 515.47 67.1734C503.9 58.6234 473.94 58.5433 459.28 58.5433Z" fill="#DF221C"/>
<path d="M208.49 46.6433C229.49 43.1433 250.23 38.5733 270.08 31.0133C274.77 29.2933 280.2 27.3633 284.83 25.3833C373.16 -13.3967 455.52 -9.79667 532.99 50.4733L531.51 49.9533C553.3 50.4633 575.17 51.6733 596.77 54.7933C611.22 56.9233 625.77 59.7933 639.5 64.7933C652.99 70.3233 667.04 78.2933 673.68 91.9033C676.98 98.5433 677.58 106.213 676.46 113.423C677.084 106.254 675.53 99.0642 672 92.7933C664.67 80.4233 651 73.9833 637.77 69.5433C620.91 63.4533 603.12 60.4533 585.36 58.3233C567.6 56.1933 549.45 55.3234 531.36 54.9334H530.55L529.88 54.4233C453.74 -4.78666 373.42 -8.03666 286.75 29.9833C262.14 40.7633 234.99 44.6233 208.45 46.6433H208.49Z" fill="white"/>
<path d="M0 203.953C42.42 236.583 93.22 247.473 145.71 239.313C149.21 238.853 157.9 237.193 161.45 236.513L162.55 241.383C157.47 242.533 151.73 243.803 146.55 244.593C108.95 250.993 69.05 246.883 34.68 229.863C21.75 223.373 9.28 215.173 0.0100021 203.953H0Z" fill="white"/>
<path d="M243.17 134.543C239.97 130.593 234.52 128.423 225.77 127.673L226.88 121.393H213L212 127.543C197.45 128.313 187.31 132.473 184.63 147.913C183.45 154.553 184.28 159.523 187.19 163.113C190.38 167.043 195.86 169.193 204.72 169.913L203.72 176.223H217.35L218.43 170.073C233.43 169.263 243.15 165.153 245.84 149.623C247 143.093 246.08 138.153 243.17 134.543ZM220.17 158.283L223.49 139.113C227.94 139.433 230.64 140.223 231.7 141.513C232.58 142.583 232.7 144.683 232.17 147.923C231.08 154.203 229 157.333 220.19 158.303L220.17 158.283ZM198.69 156.103C197.82 155.043 197.69 152.923 198.23 149.613C199.3 143.363 201.37 140.233 210.23 139.263L206.93 158.543C202.44 158.173 199.74 157.393 198.71 156.123L198.69 156.103Z" fill="white"/>
<path d="M265.54 137.263L264.65 142.463H287.07L285.25 153.653H262.78L261.32 162.383C261.55 162.396 261.78 162.396 262.01 162.383H286.01L285.62 173.443L282.43 173.623C275.68 173.993 267.95 173.993 261.14 173.993C255.78 173.993 251.88 172.583 249.53 169.803C248.586 168.644 247.915 167.287 247.569 165.832C247.223 164.378 247.209 162.864 247.53 161.403L252.15 134.573C253.2 128.213 258.59 124.403 266.56 124.403C274.27 124.403 282.23 124.403 289.28 124.773L293.38 124.993L291.02 135.993H267.45C266.898 135.932 266.34 136.015 265.83 136.233C265.657 136.551 265.558 136.903 265.54 137.263Z" fill="white"/>
<path d="M345 124.543H321.55C313.72 124.543 308.37 128.363 306.88 134.993C304.82 143.683 301.88 153.673 295.44 162.583H289.37L288.24 169.843L285.84 183.313H297.91L300.18 174.013H330.29L329.29 183.313H341.29L344.83 162.543H338.41L345 124.543ZM311 162.543C315.88 154.103 318.41 145.043 320.11 137.653C320.34 136.583 320.48 135.933 323.04 135.933H329.33L324.73 162.543H311Z" fill="white"/>
<path d="M365.37 137.263L364.48 142.463H386.9L385.08 153.653H362.61L361.15 162.383C361.38 162.396 361.61 162.396 361.84 162.383H385.84L385.45 173.443L382.26 173.623C375.51 173.993 367.78 173.993 360.97 173.993C355.61 173.993 351.7 172.583 349.36 169.803C348.414 168.645 347.742 167.288 347.396 165.833C347.05 164.378 347.037 162.864 347.36 161.403L352 134.603C353 128.243 358.44 124.433 366.41 124.433C374.11 124.433 382.08 124.433 389.13 124.803L393.22 125.023L390.87 136.023H367.28C366.728 135.96 366.17 136.043 365.66 136.263C365.492 136.572 365.393 136.913 365.37 137.263Z" fill="white"/>
<path d="M435.34 128.953C432.43 125.483 427.51 123.953 419.34 123.953C411.43 123.953 407.34 124.013 401.34 124.523L398.65 124.753L390.14 173.983H404L406.9 157.223C409.72 157.433 412.79 157.553 415.73 157.553C428.12 157.553 435.28 154.993 437.63 141.553C438.54 136.003 437.81 131.893 435.34 128.953ZM410.54 135.633C413.03 135.633 415.93 135.633 419.15 135.633C423.4 135.633 424.08 136.303 424.15 136.373C424.22 136.443 424.62 136.983 424.15 139.873C423.09 145.633 421.48 145.873 415.49 145.873H408.83L410.54 135.633Z" fill="white"/>
<path d="M471.13 128.963C470.871 127.658 470.152 126.49 469.104 125.669C468.056 124.849 466.749 124.432 465.42 124.493H458.42C457.246 124.429 456.078 124.711 455.063 125.305C454.048 125.899 453.23 126.778 452.71 127.833L425.9 173.963H441.08L448.49 160.733H465.15L467.95 173.963H481.87L471.13 128.963ZM462.59 148.963H455.05L460.48 139.263L462.59 148.963Z" fill="white"/>
<path d="M530.55 162.533H536.97L533.43 183.263H521.45L522.43 173.953H484.65L493.2 124.483H506.96L500.38 162.533H516.87L523.45 124.483H537.13L530.55 162.533Z" fill="white"/>
<path d="M593.54 124.483L585 173.953H571.54L576.16 147.063L551.76 173.953H538.79L547.34 124.483H560.95L556.25 151.423L580.65 124.483H593.54Z" fill="white"/>
<path d="M639.18 124.543C634.18 124.183 629.58 123.973 620.63 123.973C611.68 123.973 601.25 125.603 599.1 138.273C598.35 142.643 599.1 146.663 601.25 149.603C601.647 150.146 602.088 150.655 602.57 151.123C601.175 152.419 599.973 153.907 599 155.543L589.22 173.963H604.42L612 159.433C613.12 157.333 614.19 156.733 616.8 156.733H623.73L620.73 174.003H634.57L643 124.773L639.18 124.543ZM617.3 145.053C615.11 145.053 613.53 144.663 612.96 143.973C612.39 143.283 612.38 142.033 612.72 140.203C613.27 137.273 613.9 135.613 620.72 135.613H627.38L625.72 145.043L617.3 145.053Z" fill="white"/>
<path d="M211.15 195.543C210.939 194.225 210.253 193.03 209.221 192.183C208.19 191.336 206.884 190.895 205.55 190.943H199C197.817 190.891 196.646 191.2 195.642 191.828C194.638 192.457 193.849 193.376 193.38 194.463L168.19 242.253H182.79L189.79 228.443H205.11L207.75 242.253H221.27L211.15 195.543ZM195.82 216.543L200.82 206.723L202.75 216.543H195.82Z" fill="white"/>
<path d="M268.74 206.193C269.5 201.343 268.74 197.713 266.53 195.083C262.99 190.953 256.4 190.393 250.42 190.393C243.2 190.393 239.37 190.473 234.32 190.923L231.6 191.173L223.66 241.913L227.43 242.213C233.37 242.683 237.94 242.743 246.28 242.743C257.73 242.743 264.76 240.403 266.81 228.443C267.65 223.353 267 219.523 264.81 216.733C264.586 216.443 264.346 216.166 264.09 215.903C266.52 213.743 268.05 210.543 268.74 206.193ZM241.93 210.113L243.14 202.213H250.14C254.58 202.213 255.61 202.673 255.8 202.813C255.997 203.658 255.98 204.538 255.75 205.373C255.22 208.853 254.7 210.053 248.26 210.113H241.93ZM240.13 221.413H247.94C252.62 221.493 253.55 222.163 253.72 222.413C253.72 222.473 254.21 223.103 253.72 226.053C253.17 229.783 252.65 230.963 245.32 230.963H238.61L240.13 221.413Z" fill="white"/>
<path d="M317.4 190.913L315.69 202.923H299.72L293.57 242.213H280.2L286.34 202.923H270.48L272.37 190.913H317.4Z" fill="white"/>
<path d="M356.25 195.853C352.93 191.963 347.6 190.073 339.95 190.073C323.95 190.073 316.55 197.303 313.7 215.853C312.15 226.023 313.21 232.853 317.03 237.283C320.42 241.223 325.65 243.063 333.52 243.063C349.43 243.063 356.71 235.833 359.52 217.293C361.09 207.133 360.07 200.323 356.25 195.853ZM333.66 230.983C330.52 230.983 328.56 230.493 327.66 229.463C326.31 227.883 326.15 223.903 327.17 217.293C329.29 203.583 332.58 202.153 339.57 202.153C342.82 202.153 344.82 202.633 345.67 203.643C346.99 205.183 347.11 209.173 346.05 215.823C343.86 229.543 340.43 230.983 333.66 230.983Z" fill="white"/>
<path d="M406 192.413L403.51 202.993L400.51 202.713C396.463 202.308 392.397 202.121 388.33 202.153C381.27 202.153 377.97 203.583 375.93 217.273C374.87 223.903 375.01 227.883 376.36 229.473C377.21 230.473 379.07 230.963 382.06 230.983C386.626 231.03 391.191 230.803 395.73 230.303L399.3 229.903L400.21 240.783L397.29 241.483C392.277 242.629 387.14 243.136 382 242.993C374.38 242.993 369.05 241.093 365.71 237.183C361.9 232.723 360.87 225.933 362.47 215.833C365.37 197.343 372.65 190.143 388.47 190.143C393.267 189.982 398.064 190.47 402.73 191.593L406 192.413Z" fill="white"/>
<path d="M454.28 190.913L446.26 242.213H432.88L439.1 202.533H423.39L417.18 242.213H403.74L411.76 190.913H454.28Z" fill="white"/>
<path d="M497.43 195.853C494.12 191.963 488.78 190.073 481.13 190.073C465.13 190.073 457.74 197.303 454.88 215.853C453.33 226.023 454.39 232.853 458.21 237.283C461.6 241.223 466.84 243.063 474.7 243.063C490.61 243.063 497.89 235.833 500.7 217.293C502.28 207.133 501.25 200.323 497.43 195.853ZM474.84 230.983C471.7 230.983 469.74 230.493 468.84 229.463C467.49 227.883 467.33 223.903 468.35 217.293C470.47 203.583 473.76 202.153 480.75 202.153C484 202.153 486 202.633 486.85 203.643C488.17 205.183 488.29 209.173 487.23 215.823C485 229.543 481.61 230.983 474.84 230.983Z" fill="white"/>
<path d="M546 195.173C542.29 190.833 535.69 190.333 531 190.333C525.31 190.232 519.619 190.429 513.95 190.923L511.25 191.183L503.25 242.183H516.63L519.36 224.713C521.97 224.923 524.79 225.033 527.49 225.033C539.33 225.033 546.17 222.383 548.38 208.413C549.4 202.543 548.6 198.193 546 195.173ZM522.9 202.233C525.2 202.233 527.9 202.233 530.83 202.233C534.59 202.233 535.22 202.843 535.28 202.913C535.34 202.983 535.84 203.613 535.28 206.913C534.28 212.773 533.19 213.233 527.28 213.233H521.15L522.9 202.233Z" fill="white"/>
<path d="M595.84 190.913L594.12 202.923H578.15L572.01 242.213H558.63L564.78 202.923H548.92L550.8 190.913H595.84Z" fill="white"/>
<path d="M622.13 195.543C621.914 194.225 621.226 193.031 620.193 192.185C619.16 191.338 617.855 190.897 616.52 190.943H610C608.817 190.891 607.646 191.2 606.642 191.828C605.638 192.457 604.849 193.376 604.38 194.463L579.2 242.253H593.79L600.79 228.443H616.11L618.75 242.253H632.27L622.13 195.543ZM606.79 216.543L611.79 206.723L613.72 216.543H606.79Z" fill="white"/>
<path d="M170 261.543C172.96 261.246 175.936 261.129 178.91 261.193C185.01 261.193 187.22 263.403 186.34 269.543C185.39 276.243 183.03 277.653 177.04 277.653C175.067 277.658 173.096 277.531 171.14 277.273L169.65 287.833H166.3L170 261.543ZM176.93 274.763C181.08 274.763 182.38 273.613 183.03 269.273C183.68 264.933 182.42 264.093 178.8 264.093C176.51 264.093 174.49 264.093 172.97 264.093L171.48 274.723L176.93 274.763Z" fill="white"/>
<path d="M197.47 264.333C195.75 264.333 194.99 265.093 194.76 266.923L193.96 272.633H205.28L204.94 275.223H193.62L192.62 282.503C192.35 284.253 193 284.983 194.71 284.983H205L204.93 287.613C201.57 287.833 197.76 287.833 194.3 287.833C190.45 287.833 188.73 285.833 189.19 282.583L191.51 265.963C191.9 263.143 193.8 261.473 197.04 261.473C200.92 261.473 204.89 261.473 208.39 261.703L207.94 264.333H197.47Z" fill="white"/>
<path d="M226.88 287.423C224.354 288.055 221.753 288.335 219.15 288.253C211.61 288.253 209.21 284.183 210.58 274.543C211.99 264.543 215.07 261.053 222.58 261.053C224.993 260.957 227.407 261.226 229.74 261.853L229.21 264.363C226.996 264.116 224.768 264.003 222.54 264.023C217.4 264.023 215.23 266.233 214.08 274.773C212.94 282.773 214.2 285.243 219.19 285.283C221.697 285.313 224.202 285.173 226.69 284.863L226.88 287.423Z" fill="white"/>
<path d="M250.17 287.803H246.81L250.13 264.253H238L234.69 287.803H231.3L235 261.543H253.9L250.17 287.803Z" fill="white"/>
<path d="M268.19 281.393C266.47 284.943 264.61 287.803 261.48 288.063C259.874 288.117 258.268 287.925 256.72 287.493L257.25 285.053C262.25 285.513 262.47 285.173 264.68 281.243L265.33 280.143H264C263.43 280.209 262.857 280.051 262.402 279.702C261.946 279.353 261.644 278.841 261.56 278.273L257.86 261.543H261.22L264.38 276.813C264.45 277.203 264.68 277.353 265.1 277.353H266.74L274.44 261.543H278L268.19 281.393Z" fill="white"/>
<path d="M283.58 272.823H289.07C295.55 272.823 297.53 274.823 296.73 280.593C295.85 286.593 293.49 288.143 287.66 288.143C284.48 288.189 281.299 288.076 278.13 287.803L281.83 261.513C284.54 261.353 287.24 261.283 289.95 261.283C292.66 261.283 295.28 261.353 297.95 261.513L297.26 264.333H284.8L283.58 272.823ZM281.83 285.213C283.28 285.213 285.15 285.213 287.24 285.213C291.55 285.213 292.8 284.213 293.38 280.213C293.87 276.483 293.26 275.413 288.88 275.413H283.24L281.83 285.213Z" fill="white"/>
<path d="M319 287.803H315.7L319 264.253H313.89C311.89 264.253 311.04 264.943 310.58 267.073C308.58 276.073 307.84 279.383 305.66 283.003C303.87 286.083 301.32 287.803 298.35 287.833L298.24 285.133C300.068 284.604 301.631 283.409 302.62 281.783C304.62 278.693 305.28 275.913 307.38 266.193C308.1 262.993 310.01 261.513 313.21 261.513H322.73L319 287.803Z" fill="white"/>
<path d="M342.11 287.803L344.66 269.543C344.85 268.243 345.12 266.943 345.39 265.693H345.23C344.66 266.693 344.05 267.743 343.48 268.543L329.27 287.793H325.61L329.31 261.503H332.58L330 279.763C329.836 281.059 329.582 282.343 329.24 283.603H329.39C330.04 282.463 330.73 281.473 331.3 280.603L345.39 261.543H349L345.3 287.833L342.11 287.803Z" fill="white"/>
<path d="M362.91 274.193C367.71 274.803 368.36 279.573 370.19 287.803H366.84C365.12 279.913 364.59 275.453 359.71 275.453H356.78C356.809 276.412 356.732 277.371 356.55 278.313L355.26 287.803H351.9L355.6 261.543H359L357.82 269.803C357.69 270.817 357.486 271.82 357.21 272.803H359.95C364.45 272.803 366.66 267.923 369.86 261.563H373.33C369.92 268.443 367.6 273.543 363 274.083L362.91 274.193Z" fill="white"/>
<path d="M391.15 287.803L393.7 269.543C393.89 268.243 394.16 266.943 394.42 265.693H394.27C393.7 266.693 393.09 267.743 392.52 268.543L378.31 287.793H374.65L378.35 261.503H381.62L379 279.763C378.836 281.059 378.582 282.343 378.24 283.603H378.39C379.04 282.463 379.73 281.473 380.3 280.603L394.42 261.543H398L394.31 287.833L391.15 287.803Z" fill="white"/>
<path d="M425.94 287.803L428.49 269.543C428.68 268.243 428.95 266.943 429.21 265.693H429.06C428.49 266.693 427.88 267.743 427.31 268.543L413.1 287.803H409.44L413.13 261.543H416.41L413.82 279.793C413.656 281.089 413.402 282.373 413.06 283.633H413.21C413.86 282.493 414.54 281.503 415.11 280.633L429.21 261.543H432.83L429.14 287.833L425.94 287.803Z" fill="white"/>
<path d="M454.55 287.803H451.24L453 275.223H440.87L439.12 287.803H435.73L439.43 261.513H442.82L441.29 272.333H453.41L454.93 261.543H458.25L454.55 287.803Z" fill="white"/>
<path d="M464 266.343C464.46 263.033 466.59 261.473 469.3 261.473C473.07 261.473 476.88 261.473 480.3 261.733L479.84 264.333H470.32C468.32 264.333 467.57 264.943 467.27 267.113L464.37 287.803H461L464 266.343Z" fill="white"/>
<path d="M492.2 281.393C490.48 284.943 488.62 287.803 485.49 288.063C483.884 288.117 482.278 287.925 480.73 287.493L481.26 285.053C486.26 285.513 486.48 285.173 488.69 281.243L489.34 280.143H488C487.43 280.209 486.857 280.051 486.402 279.702C485.946 279.353 485.644 278.841 485.56 278.273L481.87 261.543H485.23L488.39 276.813C488.46 277.203 488.69 277.353 489.11 277.353H490.75L498.45 261.543H502L492.2 281.393Z" fill="white"/>
<path d="M531 287.803H502.14L505.84 261.513H509.12L505.84 285.053H515.29L518.6 261.543H521.88L518.57 285.083H528.05L531.33 261.543H534.64L531 287.803Z" fill="white"/>
<path d="M546.27 264.333C544.55 264.333 543.79 265.093 543.56 266.923L542.76 272.633H554.08L553.74 275.223H542.42L541.42 282.503C541.15 284.253 541.8 284.983 543.51 284.983H553.8L553.73 287.613C550.37 287.833 546.56 287.833 543.1 287.833C539.25 287.833 537.53 285.833 537.99 282.583L540.31 265.963C540.69 263.143 542.6 261.473 545.84 261.473C549.73 261.473 553.69 261.473 557.19 261.703L556.74 264.333H546.27Z" fill="white"/>
<path d="M571.34 264.483L568.06 287.803H564.71L568 264.483H559.54L559.96 261.483H580.23L579.85 264.483H571.34Z" fill="white"/>
<path d="M597.1 287.803L599.65 269.543C599.84 268.243 600.11 266.943 600.37 265.693H600.22C599.65 266.693 599.04 267.743 598.47 268.543L584.26 287.793H580.6L584.3 261.543H587.57L585 279.763C584.836 281.059 584.582 282.342 584.24 283.603H584.39C585.04 282.463 585.73 281.473 586.3 280.603L600.37 261.543H604L600.31 287.833L597.1 287.803Z" fill="white"/>
<path d="M620.23 287.803L621.75 277.093H616.15C614.21 277.093 613.06 277.893 612.15 279.913L608.83 287.763H605.17L608.68 279.643C609.9 277.163 611.16 276.063 612.87 275.873V275.723C609.44 275.113 608.41 271.723 608.87 268.173C609.59 262.913 612.49 261.173 617.97 261.173C622.32 261.173 624.6 261.293 627.19 261.523L623.5 287.813L620.23 287.803ZM623.58 264.103C622.13 264.103 620.26 264.103 618.13 264.103C614.59 264.103 612.91 265.173 612.38 268.713C611.85 272.253 612.83 274.273 616.38 274.273H622.09L623.58 264.103Z" fill="white"/>
</svg>
